<svg width="53" height="51" viewBox="0 0 53 51" fill="none" xmlns="http://www.w3.org/2000/svg">
<path d="M29.2333 10.5793C29.8223 10.339 30.4394 10.3924 31.0844 10.7395C31.7295 11.0866 32.1923 11.5671 32.4728 12.1812L40.5082 32.967C40.7887 33.5811 40.7607 34.1819 40.4241 34.7693C40.0875 35.3567 39.5687 35.7839 38.8675 36.0509L25.4891 40.6566C24.844 40.8702 24.2129 40.8168 23.5959 40.4964C22.9788 40.176 22.5301 39.6954 22.2496 39.0546L14.2142 18.5091C14.0178 17.8416 14.0599 17.1875 14.3404 16.5467C14.6208 15.9059 15.1117 15.4653 15.8128 15.225L29.2333 10.5793ZM30.0327 12.9021L16.6542 17.5479L24.6897 38.3337L38.0681 33.728L30.0327 12.9021Z" fill="#013099"/>
<ellipse cx="37.5819" cy="32.4546" rx="5.87216" ry="5.79545" fill="#F5F8FF"/>
<path d="M37.1836 35.3211V30.6336H37.979V35.3211H37.1836ZM35.2376 33.3751V32.5796H39.9251V33.3751H35.2376Z" fill="#013099"/>
</svg>
