<svg width="53" height="52" viewBox="0 0 53 52" fill="none" xmlns="http://www.w3.org/2000/svg">
<path d="M40.0015 13.2074L40.973 13.4952C41.8742 13.879 42.4868 14.537 42.8106 15.469C43.1345 16.4011 43.043 17.3194 42.536 18.2241L40.0015 23.8165L40.0015 13.2074ZM32.1442 10C33.1018 10 33.9185 10.329 34.5943 10.9869C35.2702 11.6448 35.6082 12.4398 35.6082 13.3719L35.6082 21.8838L31.7218 11.1103C31.6655 10.8909 31.581 10.699 31.4684 10.5346C31.3557 10.3701 31.2149 10.1919 31.0459 10L32.1442 10ZM24.2025 10.9869C24.7939 10.7402 25.4135 10.795 26.0612 11.1514C26.709 11.5078 27.1736 12.0012 27.4553 12.6317L35.5237 33.9733C35.8053 34.6038 35.7771 35.2206 35.4392 35.8237C35.1013 36.4268 34.5803 36.8654 33.8762 37.1396L20.4429 41.8684C19.7952 42.0877 19.1615 42.0329 18.542 41.7039C17.9224 41.375 17.4718 40.8815 17.1902 40.2236L9.12176 19.1288C8.92463 18.4434 8.96687 17.7718 9.24849 17.1139C9.53011 16.4559 10.0229 16.0036 10.727 15.7569L24.2025 10.9869ZM27.6665 31.3416C27.3285 31.3416 27.0328 31.4649 26.7794 31.7116C26.5259 31.9584 26.3992 32.2462 26.3992 32.5752C26.3992 32.9041 26.5259 33.192 26.7794 33.4387C27.0328 33.6854 27.3285 33.8088 27.6665 33.8088C28.0044 33.8088 28.3001 33.6854 28.5536 33.4387C28.807 33.192 28.9338 32.9041 28.9338 32.5752C28.9338 32.2462 28.807 31.9584 28.5536 31.7116C28.3001 31.4649 28.0044 31.3416 27.6665 31.3416ZM25.0052 13.3719L11.5719 18.1419L19.6403 39.4834L33.0736 34.7546L25.0052 13.3719ZM33.0736 34.7546L19.6403 39.4834L33.0736 34.7546Z" fill="#013099"/>
<ellipse cx="30.5" cy="34" rx="5.5" ry="6" fill="#F5F8FF"/>
<path d="M30.1018 36.5028V31.8153H30.8973V36.5028H30.1018ZM28.1558 34.5568V33.7614H32.8433V34.5568H28.1558Z" fill="#013099"/>
</svg>
