<svg width="20" height="20" viewBox="0 0 20 20" fill="none" xmlns="http://www.w3.org/2000/svg">
  <path
    d="M11.875 16.25V12.5C11.875 12.3343 11.8092 12.1753 11.6919 12.0581C11.5747 11.9409 11.4158 11.875 11.25 11.875H8.75C8.58424 11.875 8.42527 11.9409 8.30806 12.0581C8.19085 12.1753 8.125 12.3343 8.125 12.5V16.25C8.125 16.4158 8.05915 16.5747 7.94194 16.692C7.82473 16.8092 7.66576 16.875 7.5 16.875H3.75C3.58424 16.875 3.42527 16.8092 3.30806 16.692C3.19085 16.5747 3.125 16.4158 3.125 16.25V9.02345C3.1264 8.93696 3.14509 8.85162 3.17998 8.77245C3.21486 8.69329 3.26523 8.62191 3.32812 8.56252L9.57812 2.88283C9.69334 2.77742 9.84384 2.71896 10 2.71896C10.1562 2.71896 10.3067 2.77742 10.4219 2.88283L16.6719 8.56252C16.7348 8.62191 16.7851 8.69329 16.82 8.77245C16.8549 8.85162 16.8736 8.93696 16.875 9.02345V16.25C16.875 16.4158 16.8092 16.5747 16.6919 16.692C16.5747 16.8092 16.4158 16.875 16.25 16.875H12.5C12.3342 16.875 12.1753 16.8092 12.0581 16.692C11.9408 16.5747 11.875 16.4158 11.875 16.25Z"
    stroke="#013099" stroke-width="2" stroke-linecap="round" stroke-linejoin="round" />
</svg>